<?xml version="1.0" encoding="utf-8"?>
<!-- Generator: Adobe Illustrator 15.1.0, SVG Export Plug-In . SVG Version: 6.00 Build 0)  -->
<!DOCTYPE svg PUBLIC "-//W3C//DTD SVG 1.1//EN" "http://www.w3.org/Graphics/SVG/1.1/DTD/svg11.dtd">
<svg version="1.1" id="Layer_1" xmlns="http://www.w3.org/2000/svg" xmlns:xlink="http://www.w3.org/1999/xlink" x="0px" y="0px"
	 width="100px" height="120px" viewBox="0 0 100 120" enable-background="new 0 0 100 120" xml:space="preserve">
<polygon fill="#E6E7E8" points="41.079,33.914 40.987,104.923 79.098,93.542 79.174,33.835 "/>
<polygon fill="#A4B8BC" points="23.313,15 9.942,37.829 14.07,37.834 26.582,18.422 "/>
<polygon fill="#D1D3D4" points="25.477,16.268 14.072,36.266 14,92.822 40.987,104.923 41.079,33.914 "/>
<polygon fill="#FFFFFF" points="23.313,15 68.088,15.072 89.967,39.556 43.929,44.551 "/>
<path fill="#E6E7E8" d="M-39.915,11.691"/>
<path fill="#7A8789" d="M17.762,90.008V39.794c0,0,2.666-4.934,7.82-4.851c5.353,0.087,9.539,7.278,9.539,7.278v54.494
	L17.762,90.008z"/>
<polygon fill="#A4B8BC" points="17.762,90.008 17.762,87.812 35.121,84.786 35.121,96.716 "/>
</svg>
